<?xml version="1.0" encoding="UTF-8" standalone="no"?>
<!DOCTYPE svg PUBLIC "-//W3C//DTD SVG 1.1//EN"
 "http://www.w3.org/Graphics/SVG/1.1/DTD/svg11.dtd">
<!-- Generated by graphviz version 2.42.4 (0)
 -->
<!-- Title: user_flow Pages: 1 -->
<svg width="439pt" height="747pt"
 viewBox="0.00 0.00 439.00 747.00" xmlns="http://www.w3.org/2000/svg" xmlns:xlink="http://www.w3.org/1999/xlink">
<g id="graph0" class="graph" transform="scale(1 1) rotate(0) translate(4 743)">
<title>user_flow</title>
<!-- start -->
<g id="node1" class="node">
<title>start</title>
<path fill="#dfe7f2" stroke="#0f3460" stroke-width="1.2" d="M270,-739C270,-739 134,-739 134,-739 128,-739 122,-733 122,-727 122,-727 122,-711 122,-711 122,-705 128,-699 134,-699 134,-699 270,-699 270,-699 276,-699 282,-705 282,-711 282,-711 282,-727 282,-727 282,-733 276,-739 270,-739"/>
<text text-anchor="middle" x="202" y="-722.4" font-family="DejaVu Sans" font-size="12.00" fill="#1a1a2e">Dev finds a third&#45;party</text>
<text text-anchor="middle" x="202" y="-709.4" font-family="DejaVu Sans" font-size="12.00" fill="#1a1a2e">skill / plugin</text>
</g>
<!-- run -->
<g id="node2" class="node">
<title>run</title>
<path fill="#d7e9d7" stroke="#2f6b2f" stroke-width="1.2" d="M264.5,-662C264.5,-662 139.5,-662 139.5,-662 133.5,-662 127.5,-656 127.5,-650 127.5,-650 127.5,-634 127.5,-634 127.5,-628 133.5,-622 139.5,-622 139.5,-622 264.5,-622 264.5,-622 270.5,-622 276.5,-628 276.5,-634 276.5,-634 276.5,-650 276.5,-650 276.5,-656 270.5,-662 264.5,-662"/>
<text text-anchor="middle" x="202" y="-645.4" font-family="DejaVu Sans" font-size="12.00" fill="#1a1a2e">npx exosphere&#45;audit</text>
<text text-anchor="middle" x="202" y="-632.4" font-family="DejaVu Sans" font-size="12.00" fill="#1a1a2e">&lt;git&#45;url | local&#45;dir&gt;</text>
</g>
<!-- start&#45;&gt;run -->
<g id="edge1" class="edge">
<title>start&#45;&gt;run</title>
<path fill="none" stroke="#5a6b8c" stroke-width="1.1" d="M202,-698.69C202,-690.72 202,-681.32 202,-672.53"/>
<polygon fill="#5a6b8c" stroke="#5a6b8c" stroke-width="1.1" points="205.5,-672.25 202,-662.25 198.5,-672.25 205.5,-672.25"/>
</g>
<!-- itype -->
<g id="node3" class="node">
<title>itype</title>
<path fill="#fff3d6" stroke="#a07b1f" stroke-width="1.2" d="M190.48,-581.65C190.48,-581.65 120.52,-561.35 120.52,-561.35 114.76,-559.67 114.76,-556.33 120.52,-554.65 120.52,-554.65 190.48,-534.35 190.48,-534.35 196.24,-532.67 207.76,-532.67 213.52,-534.35 213.52,-534.35 283.48,-554.65 283.48,-554.65 289.24,-556.33 289.24,-559.67 283.48,-561.35 283.48,-561.35 213.52,-581.65 213.52,-581.65 207.76,-583.33 196.24,-583.33 190.48,-581.65"/>
<text text-anchor="middle" x="202" y="-554.9" font-family="DejaVu Sans" font-size="12.00" fill="#1a1a2e">Input type?</text>
</g>
<!-- run&#45;&gt;itype -->
<g id="edge2" class="edge">
<title>run&#45;&gt;itype</title>
<path fill="none" stroke="#5a6b8c" stroke-width="1.1" d="M202,-621.98C202,-614.01 202,-604.46 202,-595.23"/>
<polygon fill="#5a6b8c" stroke="#5a6b8c" stroke-width="1.1" points="205.5,-595.06 202,-585.06 198.5,-595.06 205.5,-595.06"/>
</g>
<!-- fetch -->
<g id="node4" class="node">
<title>fetch</title>
<path fill="#fde7e7" stroke="#9b3b3b" stroke-width="1.2" d="M210,-484C210,-484 12,-484 12,-484 6,-484 0,-478 0,-472 0,-472 0,-456 0,-456 0,-450 6,-444 12,-444 12,-444 210,-444 210,-444 216,-444 222,-450 222,-456 222,-456 222,-472 222,-472 222,-478 216,-484 210,-484"/>
<text text-anchor="middle" x="111" y="-467.4" font-family="DejaVu Sans" font-size="12.00" fill="#1a1a2e">Shallow read&#45;only clone &#45;&gt; temp</text>
<text text-anchor="middle" x="111" y="-454.4" font-family="DejaVu Sans" font-size="12.00" fill="#1a1a2e">NO hooks / NO build executed</text>
</g>
<!-- itype&#45;&gt;fetch -->
<g id="edge3" class="edge">
<title>itype&#45;&gt;fetch</title>
<path fill="none" stroke="#5a6b8c" stroke-width="1.1" d="M181.8,-536.58C168.61,-523.24 151.24,-505.68 137.01,-491.3"/>
<polygon fill="#5a6b8c" stroke="#5a6b8c" stroke-width="1.1" points="139.42,-488.75 129.9,-484.1 134.44,-493.68 139.42,-488.75"/>
<text text-anchor="middle" x="171.5" y="-505" font-family="DejaVu Sans" font-size="10.00">git url</text>
</g>
<!-- local -->
<g id="node5" class="node">
<title>local</title>
<path fill="#eef2f8" stroke="#0f3460" stroke-width="1.2" d="M335.5,-484C335.5,-484 252.5,-484 252.5,-484 246.5,-484 240.5,-478 240.5,-472 240.5,-472 240.5,-456 240.5,-456 240.5,-450 246.5,-444 252.5,-444 252.5,-444 335.5,-444 335.5,-444 341.5,-444 347.5,-450 347.5,-456 347.5,-456 347.5,-472 347.5,-472 347.5,-478 341.5,-484 335.5,-484"/>
<text text-anchor="middle" x="294" y="-467.4" font-family="DejaVu Sans" font-size="12.00" fill="#1a1a2e">Read in place</text>
<text text-anchor="middle" x="294" y="-454.4" font-family="DejaVu Sans" font-size="12.00" fill="#1a1a2e">(read&#45;only)</text>
</g>
<!-- itype&#45;&gt;local -->
<g id="edge4" class="edge">
<title>itype&#45;&gt;local</title>
<path fill="none" stroke="#5a6b8c" stroke-width="1.1" d="M222.42,-536.58C235.76,-523.24 253.32,-505.68 267.7,-491.3"/>
<polygon fill="#5a6b8c" stroke="#5a6b8c" stroke-width="1.1" points="270.3,-493.65 274.9,-484.1 265.35,-488.7 270.3,-493.65"/>
<text text-anchor="middle" x="276" y="-505" font-family="DejaVu Sans" font-size="10.00">local dir</text>
</g>
<!-- enum -->
<g id="node6" class="node">
<title>enum</title>
<path fill="#eef2f8" stroke="#0f3460" stroke-width="1.2" d="M282,-407C282,-407 122,-407 122,-407 116,-407 110,-401 110,-395 110,-395 110,-366 110,-366 110,-360 116,-354 122,-354 122,-354 282,-354 282,-354 288,-354 294,-360 294,-366 294,-366 294,-395 294,-395 294,-401 288,-407 282,-407"/>
<text text-anchor="middle" x="202" y="-390.4" font-family="DejaVu Sans" font-size="12.00" fill="#1a1a2e">Enumerate skills / agents /</text>
<text text-anchor="middle" x="202" y="-377.4" font-family="DejaVu Sans" font-size="12.00" fill="#1a1a2e">plugin.json / settings.json /</text>
<text text-anchor="middle" x="202" y="-364.4" font-family="DejaVu Sans" font-size="12.00" fill="#1a1a2e">hooks / scripts / MCP</text>
</g>
<!-- fetch&#45;&gt;enum -->
<g id="edge5" class="edge">
<title>fetch&#45;&gt;enum</title>
<path fill="none" stroke="#5a6b8c" stroke-width="1.1" d="M132.57,-443.69C142.47,-434.81 154.5,-424.04 165.74,-413.98"/>
<polygon fill="#5a6b8c" stroke="#5a6b8c" stroke-width="1.1" points="168.24,-416.43 173.36,-407.15 163.57,-411.22 168.24,-416.43"/>
</g>
<!-- local&#45;&gt;enum -->
<g id="edge6" class="edge">
<title>local&#45;&gt;enum</title>
<path fill="none" stroke="#5a6b8c" stroke-width="1.1" d="M272.2,-443.69C262.18,-434.81 250.03,-424.04 238.66,-413.98"/>
<polygon fill="#5a6b8c" stroke="#5a6b8c" stroke-width="1.1" points="240.77,-411.17 230.96,-407.15 236.12,-416.41 240.77,-411.17"/>
</g>
<!-- scan -->
<g id="node7" class="node">
<title>scan</title>
<path fill="#e8e2f4" stroke="#5a3f86" stroke-width="1.2" d="M319,-317C319,-317 85,-317 85,-317 79,-317 73,-311 73,-305 73,-305 73,-263 73,-263 73,-257 79,-251 85,-251 85,-251 319,-251 319,-251 325,-251 331,-257 331,-263 331,-263 331,-305 331,-305 331,-311 325,-317 319,-317"/>
<text text-anchor="middle" x="202" y="-300.4" font-family="DejaVu Sans" font-size="12.00" fill="#1a1a2e">Scan 4 classes</text>
<text text-anchor="middle" x="202" y="-287.4" font-family="DejaVu Sans" font-size="12.00" fill="#1a1a2e">(curated low&#45;FP ruleset):</text>
<text text-anchor="middle" x="202" y="-274.4" font-family="DejaVu Sans" font-size="12.00" fill="#1a1a2e">dangerous&#45;bash | prompt&#45;injection</text>
<text text-anchor="middle" x="202" y="-261.4" font-family="DejaVu Sans" font-size="12.00" fill="#1a1a2e">over&#45;broad&#45;perms | committed&#45;secrets</text>
</g>
<!-- enum&#45;&gt;scan -->
<g id="edge7" class="edge">
<title>enum&#45;&gt;scan</title>
<path fill="none" stroke="#5a6b8c" stroke-width="1.1" d="M202,-353.68C202,-345.5 202,-336.23 202,-327.21"/>
<polygon fill="#5a6b8c" stroke="#5a6b8c" stroke-width="1.1" points="205.5,-327.21 202,-317.21 198.5,-327.21 205.5,-327.21"/>
</g>
<!-- sev -->
<g id="node8" class="node">
<title>sev</title>
<path fill="#fff3d6" stroke="#a07b1f" stroke-width="1.2" d="M190.25,-211.54C190.25,-211.54 84.75,-189.46 84.75,-189.46 78.87,-188.23 78.87,-185.77 84.75,-184.54 84.75,-184.54 190.25,-162.46 190.25,-162.46 196.13,-161.23 207.87,-161.23 213.75,-162.46 213.75,-162.46 319.25,-184.54 319.25,-184.54 325.13,-185.77 325.13,-188.23 319.25,-189.46 319.25,-189.46 213.75,-211.54 213.75,-211.54 207.87,-212.77 196.13,-212.77 190.25,-211.54"/>
<text text-anchor="middle" x="202" y="-183.9" font-family="DejaVu Sans" font-size="12.00" fill="#1a1a2e">Highest severity?</text>
</g>
<!-- scan&#45;&gt;sev -->
<g id="edge8" class="edge">
<title>scan&#45;&gt;sev</title>
<path fill="none" stroke="#5a6b8c" stroke-width="1.1" d="M202,-250.84C202,-242.34 202,-233.11 202,-224.41"/>
<polygon fill="#5a6b8c" stroke="#5a6b8c" stroke-width="1.1" points="205.5,-224.14 202,-214.14 198.5,-224.14 205.5,-224.14"/>
</g>
<!-- pass -->
<g id="node9" class="node">
<title>pass</title>
<path fill="#d7e9d7" stroke="#2f6b2f" stroke-width="1.2" d="M99,-111C99,-111 17,-111 17,-111 11,-111 5,-105 5,-99 5,-99 5,-87 5,-87 5,-81 11,-75 17,-75 17,-75 99,-75 99,-75 105,-75 111,-81 111,-87 111,-87 111,-99 111,-99 111,-105 105,-111 99,-111"/>
<text text-anchor="middle" x="58" y="-89.9" font-family="DejaVu Sans" font-size="12.00" fill="#1f4d1f">PASS &#160;(exit 0)</text>
</g>
<!-- sev&#45;&gt;pass -->
<g id="edge9" class="edge">
<title>sev&#45;&gt;pass</title>
<path fill="none" stroke="#5a6b8c" stroke-width="1.1" d="M171.11,-166.26C148.39,-151.75 117.47,-131.99 93.69,-116.8"/>
<polygon fill="#5a6b8c" stroke="#5a6b8c" stroke-width="1.1" points="95.27,-113.66 84.96,-111.23 91.51,-119.56 95.27,-113.66"/>
<text text-anchor="middle" x="142.5" y="-134" font-family="DejaVu Sans" font-size="10.00">none</text>
</g>
<!-- review -->
<g id="node10" class="node">
<title>review</title>
<path fill="#fff3d6" stroke="#a07b1f" stroke-width="1.2" d="M263,-113C263,-113 141,-113 141,-113 135,-113 129,-107 129,-101 129,-101 129,-85 129,-85 129,-79 135,-73 141,-73 141,-73 263,-73 263,-73 269,-73 275,-79 275,-85 275,-85 275,-101 275,-101 275,-107 269,-113 263,-113"/>
<text text-anchor="middle" x="202" y="-96.4" font-family="DejaVu Sans" font-size="12.00" fill="#1a1a2e">REVIEW &#160;(findings +</text>
<text text-anchor="middle" x="202" y="-83.4" font-family="DejaVu Sans" font-size="12.00" fill="#1a1a2e">file:line + why)</text>
</g>
<!-- sev&#45;&gt;review -->
<g id="edge10" class="edge">
<title>sev&#45;&gt;review</title>
<path fill="none" stroke="#5a6b8c" stroke-width="1.1" d="M202,-159.88C202,-148.49 202,-135.09 202,-123.36"/>
<polygon fill="#5a6b8c" stroke="#5a6b8c" stroke-width="1.1" points="205.5,-123.16 202,-113.16 198.5,-123.16 205.5,-123.16"/>
<text text-anchor="middle" x="223.5" y="-134" font-family="DejaVu Sans" font-size="10.00">low&#45;med</text>
</g>
<!-- block -->
<g id="node11" class="node">
<title>block</title>
<path fill="#fde7e7" stroke="#9b3b3b" stroke-width="1.2" d="M419,-113C419,-113 305,-113 305,-113 299,-113 293,-107 293,-101 293,-101 293,-85 293,-85 293,-79 299,-73 305,-73 305,-73 419,-73 419,-73 425,-73 431,-79 431,-85 431,-85 431,-101 431,-101 431,-107 425,-113 419,-113"/>
<text text-anchor="middle" x="362" y="-96.4" font-family="DejaVu Sans" font-size="12.00" fill="#7a2a2a">BLOCK &#160;(exit != 0)</text>
<text text-anchor="middle" x="362" y="-83.4" font-family="DejaVu Sans" font-size="12.00" fill="#7a2a2a">safe to wire into CI</text>
</g>
<!-- sev&#45;&gt;block -->
<g id="edge11" class="edge">
<title>sev&#45;&gt;block</title>
<path fill="none" stroke="#5a6b8c" stroke-width="1.1" d="M235.15,-166.94C259.82,-152.75 293.67,-133.29 320.2,-118.04"/>
<polygon fill="#5a6b8c" stroke="#5a6b8c" stroke-width="1.1" points="321.97,-121.06 328.89,-113.04 318.48,-114.99 321.97,-121.06"/>
<text text-anchor="middle" x="307" y="-134" font-family="DejaVu Sans" font-size="10.00">high</text>
</g>
<!-- report -->
<g id="node12" class="node">
<title>report</title>
<path fill="#dfe7f2" stroke="#0f3460" stroke-width="1.2" d="M279,-36C279,-36 125,-36 125,-36 119,-36 113,-30 113,-24 113,-24 113,-12 113,-12 113,-6 119,0 125,0 125,0 279,0 279,0 285,0 291,-6 291,-12 291,-12 291,-24 291,-24 291,-30 285,-36 279,-36"/>
<text text-anchor="middle" x="202" y="-14.9" font-family="DejaVu Sans" font-size="12.00" fill="#1a1a2e">markdown + JSON report</text>
</g>
<!-- pass&#45;&gt;report -->
<g id="edge12" class="edge">
<title>pass&#45;&gt;report</title>
<path fill="none" stroke="#5a6b8c" stroke-width="1.1" d="M91.76,-74.88C111.98,-64.63 137.87,-51.51 159.48,-40.55"/>
<polygon fill="#5a6b8c" stroke="#5a6b8c" stroke-width="1.1" points="161.11,-43.65 168.45,-36.01 157.95,-37.41 161.11,-43.65"/>
</g>
<!-- review&#45;&gt;report -->
<g id="edge13" class="edge">
<title>review&#45;&gt;report</title>
<path fill="none" stroke="#5a6b8c" stroke-width="1.1" d="M202,-72.82C202,-64.77 202,-55.26 202,-46.49"/>
<polygon fill="#5a6b8c" stroke="#5a6b8c" stroke-width="1.1" points="205.5,-46.31 202,-36.31 198.5,-46.31 205.5,-46.31"/>
</g>
<!-- block&#45;&gt;report -->
<g id="edge14" class="edge">
<title>block&#45;&gt;report</title>
<path fill="none" stroke="#5a6b8c" stroke-width="1.1" d="M319.96,-72.82C298.09,-62.84 271.28,-50.61 248.76,-40.33"/>
<polygon fill="#5a6b8c" stroke="#5a6b8c" stroke-width="1.1" points="249.94,-37.03 239.39,-36.06 247.04,-43.4 249.94,-37.03"/>
</g>
</g>
</svg>
